<svg xmlns="http://www.w3.org/2000/svg" viewBox="0 0 1200 675">
  <defs>
    <linearGradient id="bg10" x1="0%" y1="0%" x2="0%" y2="100%"><stop offset="0%" stop-color="#0a0a25"/><stop offset="50%" stop-color="#0f1535"/><stop offset="100%" stop-color="#151530"/></linearGradient>
    <radialGradient id="mw10" cx="50%" cy="40%"><stop offset="0%" stop-color="#334466" stop-opacity="0.2"/><stop offset="100%" stop-color="transparent"/></radialGradient>
  </defs>
  <rect width="1200" height="675" fill="url(#bg10)"/>
  <ellipse cx="600" cy="250" rx="700" ry="180" fill="url(#mw10)" transform="rotate(-25,600,250)"/>
  <circle cx="100" cy="80" r="1.2" fill="white" opacity="0.8"/><circle cx="250" cy="150" r="0.8" fill="white" opacity="0.6"/>
  <circle cx="400" cy="60" r="1.5" fill="white" opacity="0.7"/><circle cx="550" cy="120" r="1" fill="white" opacity="0.9"/>
  <circle cx="700" cy="80" r="1.3" fill="white" opacity="0.5"/><circle cx="850" cy="140" r="1.1" fill="white" opacity="0.7"/>
  <circle cx="1000" cy="70" r="0.9" fill="white" opacity="0.8"/><circle cx="1100" cy="160" r="1.4" fill="white" opacity="0.6"/>
  <circle cx="300" cy="250" r="1.2" fill="white" opacity="0.6"/><circle cx="500" cy="300" r="1" fill="white" opacity="0.7"/>
  <circle cx="750" cy="200" r="1.3" fill="#ff9944" opacity="0.8"/>
  <circle cx="900" cy="270" r="1.1" fill="white" opacity="0.5"/><circle cx="1050" cy="300" r="0.8" fill="white" opacity="0.7"/>
  <circle cx="450" cy="200" r="2" fill="#aaddff" opacity="0.9"/>
  <circle cx="650" cy="150" r="1.8" fill="#ffddaa" opacity="0.8"/>
  <path d="M0 500 Q300 470 600 490 Q900 510 1200 480 L1200 675 L0 675Z" fill="#0a0f0a"/>
  <g transform="translate(600,460)">
    <rect x="-8" y="-40" width="16" height="50" fill="#333" rx="2"/>
    <rect x="-30" y="-55" width="60" height="20" fill="#2a2a2a" rx="3"/>
    <circle cx="0" cy="-45" r="8" fill="#222" stroke="#444" stroke-width="1"/>
    <rect x="-3" y="10" width="6" height="30" fill="#444"/>
    <rect x="-20" y="40" width="40" height="3" fill="#555" rx="1"/>
  </g>
  <path d="M0 580 Q400 560 700 575 Q1000 590 1200 565 L1200 675 L0 675Z" fill="#060a06"/>
</svg>