<svg xmlns="http://www.w3.org/2000/svg" viewBox="0 0 1200 675">
  <defs>
    <radialGradient id="bg3" cx="30%" cy="40%"><stop offset="0%" stop-color="#141430"/><stop offset="100%" stop-color="#080810"/></radialGradient>
    <linearGradient id="meteor1" x1="0%" y1="0%" x2="100%" y2="100%"><stop offset="0%" stop-color="white"/><stop offset="100%" stop-color="white" stop-opacity="0"/></linearGradient>
    <linearGradient id="meteor2" x1="0%" y1="0%" x2="100%" y2="100%"><stop offset="0%" stop-color="#aaddff"/><stop offset="100%" stop-color="#aaddff" stop-opacity="0"/></linearGradient>
  </defs>
  <rect width="1200" height="675" fill="url(#bg3)"/>
  <circle cx="150" cy="200" r="1" fill="white" opacity="0.8"/><circle cx="300" cy="100" r="1.5" fill="white" opacity="0.6"/>
  <circle cx="450" cy="300" r="1" fill="white" opacity="0.9"/><circle cx="700" cy="150" r="1.2" fill="white" opacity="0.7"/>
  <circle cx="850" cy="250" r="0.8" fill="white" opacity="0.5"/><circle cx="1000" cy="100" r="1.3" fill="white" opacity="0.6"/>
  <circle cx="200" cy="500" r="1.1" fill="white" opacity="0.7"/><circle cx="950" cy="450" r="1" fill="white" opacity="0.8"/>
  <circle cx="550" cy="400" r="1.4" fill="white" opacity="0.5"/><circle cx="1100" cy="300" r="0.9" fill="white" opacity="0.7"/>
  <circle cx="400" cy="200" r="2.5" fill="#ff9944" opacity="0.9"/>
  <circle cx="380" cy="220" r="2" fill="white" opacity="0.7"/>
  <circle cx="420" cy="240" r="2.2" fill="white" opacity="0.6"/>
  <circle cx="350" cy="180" r="1.8" fill="white" opacity="0.8"/>
  <line x1="200" y1="100" x2="500" y2="350" stroke="url(#meteor1)" stroke-width="3" stroke-linecap="round"/>
  <line x1="700" y1="50" x2="900" y2="250" stroke="url(#meteor2)" stroke-width="2.5" stroke-linecap="round"/>
  <line x1="850" y1="100" x2="1050" y2="280" stroke="url(#meteor1)" stroke-width="2" stroke-linecap="round"/>
  <line x1="400" y1="150" x2="550" y2="320" stroke="url(#meteor2)" stroke-width="1.8" stroke-linecap="round"/>
  <line x1="100" y1="250" x2="280" y2="400" stroke="url(#meteor1)" stroke-width="1.5" stroke-linecap="round"/>
  <line x1="600" y1="80" x2="750" y2="220" stroke="url(#meteor2)" stroke-width="2.2" stroke-linecap="round"/>
  <path d="M370 560 Q400 500 430 560 Q460 500 490 560 Q520 500 550 560 Q580 500 610 560 Q640 500 670 560 Q700 500 730 560 Q760 500 790 560 Q820 500 850 560 L850 675 L370 675Z" fill="#0a1a0a" opacity="0.8"/>
  <path d="M0 600 Q200 550 400 580 Q600 610 800 570 Q1000 530 1200 590 L1200 675 L0 675Z" fill="#0a120a" opacity="0.9"/>
</svg>