<svg xmlns="http://www.w3.org/2000/svg" viewBox="0 0 1200 675">
  <defs>
    <radialGradient id="bg9" cx="50%" cy="35%"><stop offset="0%" stop-color="#1a1a40"/><stop offset="100%" stop-color="#08081a"/></radialGradient>
    <radialGradient id="smoon" cx="45%" cy="40%"><stop offset="0%" stop-color="#fffde8"/><stop offset="40%" stop-color="#f5edd0"/><stop offset="100%" stop-color="#d4c8a0"/></radialGradient>
    <radialGradient id="glow9" cx="50%" cy="50%"><stop offset="0%" stop-color="#ffe880" stop-opacity="0.15"/><stop offset="50%" stop-color="#ffdd60" stop-opacity="0.05"/><stop offset="100%" stop-color="transparent"/></radialGradient>
  </defs>
  <rect width="1200" height="675" fill="url(#bg9)"/>
  <circle cx="120" cy="100" r="1" fill="white" opacity="0.6"/><circle cx="350" cy="60" r="1.3" fill="white" opacity="0.5"/>
  <circle cx="900" cy="80" r="1.1" fill="white" opacity="0.7"/><circle cx="1080" cy="150" r="0.8" fill="white" opacity="0.6"/>
  <circle cx="200" cy="300" r="1.2" fill="white" opacity="0.4"/><circle cx="1000" cy="350" r="1" fill="white" opacity="0.5"/>
  <circle cx="600" cy="250" r="200" fill="url(#glow9)"/>
  <circle cx="600" cy="250" r="130" fill="url(#smoon)"/>
  <circle cx="570" cy="220" r="15" fill="#d8d0b0" opacity="0.25"/>
  <circle cx="640" cy="270" r="22" fill="#d0c8a0" opacity="0.2"/>
  <circle cx="560" cy="290" r="10" fill="#d8d0b0" opacity="0.2"/>
  <circle cx="630" cy="210" r="8" fill="#d0c8a0" opacity="0.25"/>
  <circle cx="590" cy="260" r="12" fill="#ccc8a0" opacity="0.15"/>
  <circle cx="620" cy="240" r="6" fill="#d4ccb0" opacity="0.2"/>
  <path d="M0 550 Q200 520 400 540 Q500 550 600 530 Q700 510 800 535 Q1000 560 1200 530 L1200 675 L0 675Z" fill="#101020"/>
  <rect x="350" y="520" width="80" height="30" fill="#181828" rx="2"/>
  <rect x="355" y="490" width="25" height="30" fill="#181828" rx="1"/>
  <rect x="400" y="500" width="20" height="20" fill="#181828" rx="1"/>
  <rect x="360" y="495" width="15" height="10" fill="#222240" opacity="0.5"/>
  <path d="M0 600 Q300 580 600 595 Q900 610 1200 590 L1200 675 L0 675Z" fill="#0a0a15"/>
</svg>